<svg width="269" height="50" viewBox="0 0 269 50" fill="none" xmlns="http://www.w3.org/2000/svg">
<path d="M0 0H100V50H0V0Z" fill="#020202"/>
<path d="M33.144 41.696H24.936L11.208 20.912V41.696H3V8H11.208L24.936 28.88V8H33.144V41.696Z" fill="white"/>
<path d="M57.0938 24.416C59.0458 24.832 60.6137 25.808 61.7977 27.344C62.9817 28.848 63.5737 30.576 63.5737 32.528C63.5737 35.344 62.5817 37.584 60.5977 39.248C58.6457 40.88 55.9098 41.696 52.3898 41.696H36.6937V8H51.8617C55.2857 8 57.9578 8.784 59.8778 10.352C61.8298 11.92 62.8057 14.048 62.8057 16.736C62.8057 18.72 62.2777 20.368 61.2217 21.68C60.1977 22.992 58.8217 23.904 57.0938 24.416ZM44.9017 21.632H50.2777C51.6217 21.632 52.6458 21.344 53.3498 20.768C54.0858 20.16 54.4538 19.28 54.4538 18.128C54.4538 16.976 54.0858 16.096 53.3498 15.488C52.6458 14.88 51.6217 14.576 50.2777 14.576H44.9017V21.632ZM50.9497 35.072C52.3257 35.072 53.3817 34.768 54.1177 34.16C54.8857 33.52 55.2697 32.608 55.2697 31.424C55.2697 30.24 54.8697 29.312 54.0697 28.64C53.3017 27.968 52.2297 27.632 50.8537 27.632H44.9017V35.072H50.9497Z" fill="white"/>
<path d="M86.9104 35.744H74.3344L72.3184 41.696H63.7264L75.9184 8H85.4224L97.6144 41.696H88.9264L86.9104 35.744ZM84.7984 29.408L80.6224 17.072L76.4944 29.408H84.7984Z" fill="white"/>
<path d="M128.656 19.152C128.656 21.104 128.208 22.896 127.312 24.528C126.416 26.128 125.04 27.424 123.184 28.416C121.328 29.408 119.024 29.904 116.272 29.904H111.184V42H102.976V8.304H116.272C118.96 8.304 121.232 8.768 123.088 9.696C124.944 10.624 126.336 11.904 127.264 13.536C128.192 15.168 128.656 17.04 128.656 19.152ZM115.648 23.376C117.216 23.376 118.384 23.008 119.152 22.272C119.92 21.536 120.304 20.496 120.304 19.152C120.304 17.808 119.92 16.768 119.152 16.032C118.384 15.296 117.216 14.928 115.648 14.928H111.184V23.376H115.648Z" fill="black"/>
<path d="M134.657 12.432C133.217 12.432 132.033 12.016 131.105 11.184C130.209 10.32 129.761 9.264 129.761 8.016C129.761 6.736 130.209 5.68 131.105 4.848C132.033 3.984 133.217 3.552 134.657 3.552C136.065 3.552 137.217 3.984 138.113 4.848C139.041 5.68 139.505 6.736 139.505 8.016C139.505 9.264 139.041 10.32 138.113 11.184C137.217 12.016 136.065 12.432 134.657 12.432ZM138.737 15.216V42H130.529V15.216H138.737Z" fill="black"/>
<path d="M140.653 28.608C140.653 25.824 141.213 23.392 142.333 21.312C143.485 19.232 145.069 17.632 147.085 16.512C149.133 15.392 151.469 14.832 154.093 14.832C157.453 14.832 160.253 15.712 162.493 17.472C164.765 19.232 166.253 21.712 166.957 24.912H158.221C157.485 22.864 156.061 21.84 153.949 21.84C152.445 21.84 151.245 22.432 150.349 23.616C149.453 24.768 149.005 26.432 149.005 28.608C149.005 30.784 149.453 32.464 150.349 33.648C151.245 34.8 152.445 35.376 153.949 35.376C156.061 35.376 157.485 34.352 158.221 32.304H166.957C166.253 35.44 164.765 37.904 162.493 39.696C160.221 41.488 157.421 42.384 154.093 42.384C151.469 42.384 149.133 41.824 147.085 40.704C145.069 39.584 143.485 37.984 142.333 35.904C141.213 33.824 140.653 31.392 140.653 28.608Z" fill="black"/>
<path d="M185.316 42L177.156 30.768V42H168.948V6.48H177.156V26.112L185.268 15.216H195.396L184.26 28.656L195.492 42H185.316Z" fill="black"/>
<path d="M221.468 28.176C221.468 28.944 221.42 29.744 221.324 30.576H202.748C202.876 32.24 203.404 33.52 204.332 34.416C205.292 35.28 206.46 35.712 207.836 35.712C209.884 35.712 211.308 34.848 212.108 33.12H220.844C220.396 34.88 219.58 36.464 218.396 37.872C217.244 39.28 215.788 40.384 214.028 41.184C212.268 41.984 210.3 42.384 208.124 42.384C205.5 42.384 203.164 41.824 201.116 40.704C199.068 39.584 197.468 37.984 196.316 35.904C195.164 33.824 194.588 31.392 194.588 28.608C194.588 25.824 195.148 23.392 196.268 21.312C197.42 19.232 199.02 17.632 201.068 16.512C203.116 15.392 205.468 14.832 208.124 14.832C210.716 14.832 213.02 15.376 215.036 16.464C217.052 17.552 218.62 19.104 219.74 21.12C220.892 23.136 221.468 25.488 221.468 28.176ZM213.068 26.016C213.068 24.608 212.588 23.488 211.628 22.656C210.668 21.824 209.468 21.408 208.028 21.408C206.652 21.408 205.484 21.808 204.524 22.608C203.596 23.408 203.02 24.544 202.796 26.016H213.068Z" fill="black"/>
<path d="M257.574 14.928C260.902 14.928 263.542 15.936 265.494 17.952C267.478 19.968 268.47 22.768 268.47 26.352V42H260.31V27.456C260.31 25.728 259.846 24.4 258.918 23.472C258.022 22.512 256.774 22.032 255.174 22.032C253.574 22.032 252.31 22.512 251.382 23.472C250.486 24.4 250.038 25.728 250.038 27.456V42H241.878V27.456C241.878 25.728 241.414 24.4 240.486 23.472C239.59 22.512 238.342 22.032 236.742 22.032C235.142 22.032 233.878 22.512 232.95 23.472C232.054 24.4 231.606 25.728 231.606 27.456V42H223.398V15.216H231.606V18.576C232.438 17.456 233.526 16.576 234.87 15.936C236.214 15.264 237.734 14.928 239.43 14.928C241.446 14.928 243.238 15.36 244.806 16.224C246.406 17.088 247.654 18.32 248.55 19.92C249.478 18.448 250.742 17.248 252.342 16.32C253.942 15.392 255.686 14.928 257.574 14.928Z" fill="black"/>
</svg>
